HIERARCHY
ROOT Hips
{
	OFFSET -0.001795 -0.223333 0.028219
	CHANNELS 6 Xposition Yposition Zposition Zrotation Yrotation Xrotation 
	JOINT LeftUpLeg
	{
		OFFSET 0.069520 -0.091406 -0.006815
		CHANNELS 3 Zrotation Yrotation Xrotation
		JOINT LeftLeg
		{
			OFFSET 0.034277 -0.375199 -0.004496
			CHANNELS 3 Zrotation Yrotation Xrotation
			JOINT LeftFoot
			{
				OFFSET -0.013596 -0.397961 -0.043693
				CHANNELS 3 Zrotation Yrotation Xrotation
				JOINT LeftToe
				{
					OFFSET 0.026358 -0.055791 0.119288
					CHANNELS 3 Zrotation Yrotation Xrotation
					End Site
					{
						OFFSET 0.000000 0.000000 0.000000
					}
				}
			}
		}
	}
	JOINT RightUpLeg
	{
		OFFSET -0.067670 -0.090522 -0.004320
		CHANNELS 3 Zrotation Yrotation Xrotation
		JOINT RightLeg
		{
			OFFSET -0.038290 -0.382569 -0.008850
			CHANNELS 3 Zrotation Yrotation Xrotation
			JOINT RightFoot
			{
				OFFSET 0.015774 -0.398415 -0.042312
				CHANNELS 3 Zrotation Yrotation Xrotation
				JOINT RightToe
				{
					OFFSET -0.025372 -0.048144 0.123348
					CHANNELS 3 Zrotation Yrotation Xrotation
					End Site
					{
						OFFSET 0.000000 0.000000 0.000000
					}
				}
			}
		}
	}
	JOINT Spine
	{
		OFFSET -0.002533 0.108963 -0.026696
		CHANNELS 3 Zrotation Yrotation Xrotation
		JOINT Spine1
		{
			OFFSET 0.005487 0.135180 0.001092
			CHANNELS 3 Zrotation Yrotation Xrotation
			JOINT Spine2
			{
				OFFSET 0.001457 0.052922 0.025425
				CHANNELS 3 Zrotation Yrotation Xrotation
				JOINT Neck
				{
					OFFSET -0.002778 0.213870 -0.042857
					CHANNELS 3 Zrotation Yrotation Xrotation
					JOINT Head
					{
						OFFSET 0.005152 0.064970 0.051349
						CHANNELS 3 Zrotation Yrotation Xrotation
						End Site
						{
							OFFSET 0.000000 0.000000 0.000000
						}
					}
				}
				JOINT LeftShoulder
				{
					OFFSET 0.078845 0.121749 -0.034090
					CHANNELS 3 Zrotation Yrotation Xrotation
					JOINT LeftArm
					{
						OFFSET 0.090977 0.030469 -0.008868
						CHANNELS 3 Zrotation Yrotation Xrotation
						JOINT LeftForeArm
						{
							OFFSET 0.259612 -0.012772 -0.027456
							CHANNELS 3 Zrotation Yrotation Xrotation
							JOINT LeftHand
							{
								OFFSET 0.249234 0.008986 -0.001171
								CHANNELS 3 Zrotation Yrotation Xrotation
								End Site
								{
									OFFSET 0.000000 0.000000 0.000000
								}
							}
						}
					}
				}
				JOINT RightShoulder
				{
					OFFSET -0.081759 0.118833 -0.038615
					CHANNELS 3 Zrotation Yrotation Xrotation
					JOINT RightArm
					{
						OFFSET -0.096012 0.032551 -0.009143
						CHANNELS 3 Zrotation Yrotation Xrotation
						JOINT RightForeArm
						{
							OFFSET -0.253742 -0.013329 -0.021401
							CHANNELS 3 Zrotation Yrotation Xrotation
							JOINT RightHand
							{
								OFFSET -0.255298 0.007772 -0.005559
								CHANNELS 3 Zrotation Yrotation Xrotation
								End Site
								{
									OFFSET 0.000000 0.000000 0.000000
								}
							}
						}
					}
				}
			}
		}
	}
}
MOTION
Frames: 16
Frame Time: 0.050000
-0.040632 0.858375 1.909925 -6.258599 19.442093 9.426210 17.442124 -1.309666 -34.643185 -25.042882 6.930862 44.685992 14.956606 31.969820 -7.623857 0.000000 0.000000 0.000000 -4.702819 -0.726003 -42.062254 12.969385 -9.683893 44.779418 -6.373199 -15.260779 -1.297234 0.000000 0.000000 0.000000 -3.727419 -0.805065 19.688309 10.358640 -1.316376 -27.266919 1.974677 -0.204481 35.493780 2.558968 2.345850 -31.580727 0.000000 0.000000 0.000000 -27.174551 24.490093 -22.270696 -41.937190 8.485398 -8.964501 -117.207128 -45.372628 69.213228 0.000000 0.000000 0.000000 10.614466 -18.701289 -8.442855 55.011177 -10.131239 -11.552304 109.703186 57.918936 91.298549 0.000000 0.000000 0.000000 
-0.040742 0.859721 1.909918 -6.014604 19.529868 9.927970 17.430353 -1.347562 -34.949310 -24.990471 6.865425 44.226184 14.896825 31.788369 -7.068632 0.000000 0.000000 0.000000 -4.712320 -0.769346 -42.392662 12.675992 -9.491821 44.767319 -6.353030 -15.215581 -1.371744 0.000000 0.000000 0.000000 -3.720061 -0.819301 19.864016 10.334370 -1.274849 -27.678047 1.704006 -0.020814 35.244912 2.296772 2.465667 -30.767287 0.000000 0.000000 0.000000 -27.078236 24.324819 -22.174040 -40.830922 8.879719 -8.771261 -117.074978 -45.264372 68.698427 0.000000 0.000000 0.000000 10.438284 -18.313612 -8.212656 54.088896 -9.784480 -11.196597 106.972631 57.442590 87.545232 0.000000 0.000000 0.000000 
-0.040815 0.861211 1.909737 -5.714773 19.547862 10.181412 17.213479 -1.390519 -34.781348 -24.917743 6.757240 43.702553 15.130548 32.143563 -6.408797 0.000000 0.000000 0.000000 -4.541636 -0.725306 -42.568180 12.006703 -9.092698 44.882562 -6.288759 -15.048545 -0.945080 0.000000 0.000000 0.000000 -3.786383 -0.826779 20.131537 10.007550 -1.188750 -27.830942 1.758888 0.251697 35.095335 2.055310 2.601334 -30.101185 0.000000 0.000000 0.000000 -26.730522 24.387420 -22.115366 -39.658165 9.190307 -8.550259 -116.706418 -44.831722 67.438174 0.000000 0.000000 0.000000 9.692272 -17.982327 -7.956624 53.405068 -9.934112 -11.037790 105.238828 56.189393 84.190791 0.000000 0.000000 0.000000 
-0.040814 0.862623 1.909508 -5.394887 19.760157 10.644196 16.831257 -1.485510 -34.462682 -24.798049 6.531372 42.767207 15.221803 32.314697 -6.440964 0.000000 0.000000 0.000000 -4.469021 -0.757230 -42.776850 11.618135 -8.816525 44.604801 -6.344595 -15.179749 -1.081188 0.000000 0.000000 0.000000 -3.550325 -0.862735 19.974770 9.601512 -1.074623 -28.156203 1.437241 0.021875 35.210156 1.489265 2.845409 -29.335488 0.000000 0.000000 0.000000 -25.952424 24.342834 -21.650333 -39.134014 9.392620 -8.517439 -116.211815 -44.860527 66.821009 0.000000 0.000000 0.000000 9.492946 -17.624780 -7.764838 52.404351 -9.966623 -10.882943 104.818206 54.857895 82.017183 0.000000 0.000000 0.000000 
-0.040746 0.864446 1.909258 -5.111599 19.651861 10.891233 16.743639 -1.462502 -33.895755 -25.080111 6.514441 41.449586 15.328571 32.510886 -6.567424 0.000000 0.000000 0.000000 -4.614265 -0.781713 -42.649763 11.643223 -8.753215 44.355000 -6.226234 -14.895791 -0.835096 0.000000 0.000000 0.000000 -3.372551 -0.870398 19.748338 9.256201 -0.994868 -28.230106 1.289710 -0.160308 35.305648 1.527036 2.791130 -29.442071 0.000000 0.000000 0.000000 -25.504163 24.618451 -21.523471 -38.831368 9.874626 -8.618464 -115.701855 -44.229905 65.408912 0.000000 0.000000 0.000000 9.133433 -17.595674 -7.748954 51.526930 -10.067420 -10.752734 105.493902 53.573520 80.927017 0.000000 0.000000 0.000000 
-0.040570 0.867154 1.909008 -4.854509 19.584901 11.150362 16.520576 -1.472849 -33.412213 -24.831095 6.299520 40.443583 15.562305 32.814008 -5.955004 0.000000 0.000000 0.000000 -4.745894 -0.783795 -42.300556 11.682559 -8.609681 43.628880 -6.135834 -14.695784 -0.848735 0.000000 0.000000 0.000000 -3.060370 -0.886266 19.297261 9.091142 -0.959005 -28.180150 0.942192 -0.475018 35.314716 1.261014 2.859275 -29.181110 0.000000 0.000000 0.000000 -25.225816 24.448744 -21.158230 -38.838220 10.291315 -8.775405 -114.798374 -44.273205 64.618370 0.000000 0.000000 0.000000 9.081607 -17.543423 -7.754076 51.240926 -10.069169 -10.707715 106.156712 53.035425 80.673385 0.000000 0.000000 0.000000 
-0.040332 0.870516 1.908818 -4.667159 19.327803 11.249941 16.156039 -1.478521 -32.966980 -24.512844 6.124643 39.649986 15.789094 33.099578 -5.494851 0.000000 0.000000 0.000000 -4.839636 -0.738068 -41.983126 11.883248 -8.569589 43.115793 -6.418784 -15.379805 -0.126146 0.000000 0.000000 0.000000 -2.679718 -0.916006 18.910762 9.051393 -0.941754 -28.311637 0.547785 -0.765897 35.566265 1.290987 2.749901 -28.919533 0.000000 0.000000 0.000000 -25.033250 24.456818 -20.932584 -39.308869 10.571543 -9.038554 -114.322320 -44.574650 64.743025 0.000000 0.000000 0.000000 9.248803 -17.791270 -7.939529 50.910880 -10.187930 -10.756917 108.083828 52.707101 82.074391 0.000000 0.000000 0.000000 
-0.040129 0.873534 1.908697 -4.377421 19.365316 11.069512 15.586070 -1.546819 -32.444600 -23.698921 5.722185 39.313169 15.931881 33.111609 -4.815330 0.000000 0.000000 0.000000 -5.015059 -0.738003 -41.127877 11.988667 -8.514138 42.377616 -6.502828 -15.591866 -0.114843 0.000000 0.000000 0.000000 -2.259442 -0.992508 18.829600 8.831915 -0.894606 -28.308378 0.189300 -1.364893 35.617564 1.193723 2.691515 -28.806254 0.000000 0.000000 0.000000 -25.002608 24.523958 -20.770395 -39.982946 10.516769 -9.246516 -113.629827 -45.303790 65.330866 0.000000 0.000000 0.000000 9.269825 -18.079961 -8.147161 51.135227 -10.444512 -10.918448 109.585884 52.316428 82.861845 0.000000 0.000000 0.000000 
-0.040156 0.876027 1.908494 -4.155345 19.199110 10.833768 15.154051 -1.551781 -31.736913 -23.242550 5.502016 38.874380 15.855393 32.801413 -4.697157 0.000000 0.000000 0.000000 -5.259800 -0.735560 -40.389554 12.169522 -8.483593 41.782554 -6.683304 -16.017836 0.289387 0.000000 0.000000 0.000000 -2.130037 -1.000776 18.706661 8.924855 -0.918338 -28.274132 -0.085920 -1.945428 35.743889 1.145243 2.602862 -28.883369 0.000000 0.000000 0.000000 -25.076493 24.526588 -20.593890 -40.815444 10.252920 -9.438474 -114.063821 -46.296975 67.503750 0.000000 0.000000 0.000000 9.457337 -18.557770 -8.475490 51.268600 -10.474913 -11.029744 111.973438 52.186921 85.043615 0.000000 0.000000 0.000000 
-0.040498 0.877358 1.908131 -3.970627 19.067067 10.664447 14.972699 -1.537624 -31.272898 -23.117328 5.430705 38.572453 15.874892 32.712023 -4.442470 0.000000 0.000000 0.000000 -5.440216 -0.728488 -39.722677 12.191876 -8.380429 41.263564 -6.685937 -16.027623 0.353174 0.000000 0.000000 0.000000 -2.012533 -1.010628 18.637201 8.996258 -0.934576 -28.246581 -0.442640 -2.496508 35.868177 1.137584 2.511400 -29.163724 0.000000 0.000000 0.000000 -25.013723 24.733693 -20.496880 -41.681004 10.026255 -9.659001 -114.147572 -46.763264 68.597117 0.000000 0.000000 0.000000 9.919878 -18.840428 -8.734046 51.124556 -10.763185 -11.205941 114.711189 51.637967 87.077970 0.000000 0.000000 0.000000 
-0.041209 0.878115 1.907494 -3.862876 18.917987 10.529599 15.057727 -1.497123 -31.123361 -23.306232 5.528254 38.553172 15.785475 32.501316 -4.303474 0.000000 0.000000 0.000000 -5.475634 -0.694512 -39.438432 12.284811 -8.354736 40.996166 -6.736480 -16.149591 0.418292 0.000000 0.000000 0.000000 -1.864206 -1.032102 18.608715 8.940401 -0.922624 -28.265734 -0.678856 -3.047975 36.012427 0.964141 2.505926 -29.351735 0.000000 0.000000 0.000000 -25.111684 24.744034 -20.357066 -42.503752 9.722422 -9.825480 -114.677914 -47.308140 70.280605 0.000000 0.000000 0.000000 10.031431 -19.164026 -8.980470 51.316035 -10.892118 -11.352135 116.815621 51.403457 88.913428 0.000000 0.000000 0.000000 
-0.042119 0.878394 1.906730 -3.758750 18.953781 10.355255 15.306553 -1.458749 -31.099741 -23.642234 5.663368 38.678616 15.492657 31.948576 -4.436032 0.000000 0.000000 0.000000 -5.631495 -0.744047 -39.215604 12.500805 -8.444940 40.762380 -6.752931 -16.174788 0.601551 0.000000 0.000000 0.000000 -1.900959 -1.037494 18.732912 9.058431 -0.957394 -28.096709 -0.798699 -3.590555 35.909687 0.795905 2.531007 -29.853546 0.000000 0.000000 0.000000 -25.377406 24.832443 -20.372547 -42.744732 9.265370 -9.761586 -114.641952 -47.951625 71.397176 0.000000 0.000000 0.000000 10.246759 -19.109506 -9.029450 51.271666 -10.779690 -11.363499 118.341389 51.697519 90.785448 0.000000 0.000000 0.000000 
-0.043041 0.878874 1.906097 -3.864403 18.613792 10.200059 15.693110 -1.344227 -30.881121 -24.084975 5.888602 38.420489 15.437838 31.789523 -4.088717 0.000000 0.000000 0.000000 -5.591772 -0.654870 -39.020139 12.666265 -8.402056 40.440432 -6.613344 -15.859815 0.788905 0.000000 0.000000 0.000000 -1.992718 -0.993256 18.558996 9.164904 -0.993345 -27.970818 -0.870496 -3.617377 35.937679 0.860833 2.470060 -30.057055 0.000000 0.000000 0.000000 -25.164813 24.959514 -20.281175 -42.907212 9.074592 -9.764575 -114.365081 -47.876101 71.129442 0.000000 0.000000 0.000000 10.506931 -19.244010 -9.155518 51.284689 -10.778209 -11.402283 118.541370 51.535272 90.670957 0.000000 0.000000 0.000000 
-0.043793 0.880152 1.905770 -3.925800 18.554604 9.967176 16.038403 -1.253051 -30.326072 -24.495633 5.988114 37.800681 15.511104 31.854569 -3.995007 0.000000 0.000000 0.000000 -5.587267 -0.599174 -38.512781 12.757507 -8.315052 39.807787 -6.519631 -15.635037 1.199325 0.000000 0.000000 0.000000 -1.912998 -0.987857 18.347691 9.061496 -0.978393 -27.888205 -0.890578 -3.813433 35.951907 0.793225 2.469121 -30.085574 0.000000 0.000000 0.000000 -24.976354 25.296191 -20.336560 -43.005264 8.685221 -9.688744 -113.810107 -47.454259 70.113107 0.000000 0.000000 0.000000 10.313934 -19.378002 -9.219251 51.473090 -10.858036 -11.481653 118.295837 51.066464 89.674112 0.000000 0.000000 0.000000 
-0.044213 0.882412 1.905629 -3.986286 18.528372 9.772958 16.152535 -1.196411 -29.506639 -24.502270 5.887254 36.988584 15.611707 31.898718 -3.695565 0.000000 0.000000 0.000000 -5.537117 -0.526089 -37.864420 12.770715 -8.195462 39.150234 -6.303364 -15.138828 1.387032 0.000000 0.000000 0.000000 -1.814184 -0.984919 18.109183 8.872127 -0.943223 -27.887548 -0.886865 -3.778209 35.987096 0.751398 2.490273 -29.854261 0.000000 0.000000 0.000000 -24.588285 25.616830 -20.366909 -42.816238 8.438923 -9.570446 -113.336623 -46.516458 68.322703 0.000000 0.000000 0.000000 9.726093 -19.646351 -9.268699 52.030367 -11.236625 -11.680850 118.125400 50.310292 88.586990 0.000000 0.000000 0.000000 
-0.044317 0.884891 1.905320 -3.954614 18.446472 9.788337 15.878526 -1.202592 -28.914442 -24.197658 5.671838 36.035376 15.969644 32.420653 -3.338871 0.000000 0.000000 0.000000 -5.455188 -0.450339 -37.439896 12.707579 -8.033941 38.596649 -6.254065 -15.023849 1.797227 0.000000 0.000000 0.000000 -1.831774 -0.932172 17.615418 8.919603 -0.942466 -28.054548 -0.948703 -3.572614 36.228703 0.748157 2.533807 -29.934827 0.000000 0.000000 0.000000 -24.110047 26.054498 -20.478551 -42.820483 8.299321 -9.547659 -112.861083 -45.387027 66.238962 0.000000 0.000000 0.000000 9.081814 -20.232214 -9.464794 52.726404 -11.451529 -11.847106 117.253572 49.403606 86.687051 0.000000 0.000000 0.000000 
